<svg xmlns="http://www.w3.org/2000/svg" viewBox="0 0 377.47 120.92"><defs><style>.cls-1{fill:#ea5504;}.cls-2{fill:#0b318f;}</style></defs><title>北京大学国际医院</title><path class="cls-1" d="M156.09,109v-1.62q0-.66.84-.72t1,.66V109h4.43a1.05,1.05,0,0,1,1.19,1.26v5c0,1-.37,1.46-1.25,1.38h-4.37v3.23q-.06.72-.9.78t-.9-.78v-3.23h-4.25c-.91.08-1.35-.44-1.31-1.56v-4.78c-.08-.92.34-1.36,1.25-1.32Zm-3.77,5.56q-.06.42.42.36h3.35v-4.19h-3.35q-.48,0-.42.42Zm9,.36q.36.06.36-.36v-3.41q0-.42-.36-.42h-3.47v4.19Z"/><path class="cls-1" d="M177.49,108.53q-.06-1.32,1.2-1.32h10.53q1.32.06,1.32,1.2v10.71q0,1.08-1.32,1.08H178.81q-1.38,0-1.32-1.08Zm11.31.54a.28.28,0,0,0-.3-.24h-9q-.36,0-.3.3v9.27q0,.24.3.24h9.09q.24,0,.24-.3Zm-5.8,2.15h-2.69a.75.75,0,0,1-.07-1.49h7.49a.74.74,0,0,1,.71.77c0,.48-.28.72-.71.72h-3.06v1.44h2.76c.4,0,.61.3.65.78s-.23.72-.59.72h-2.82v1.73h1.44a1.16,1.16,0,0,1-.54-.6.53.53,0,0,1,.12-.84.89.89,0,0,1,1,.06q1,1,.72,1.38h.42c.39,0,.63.3.71.78s-.26.78-.65.78h-7.72q-.66,0-.72-.78a.74.74,0,0,1,.72-.78H183v-1.73h-2.76c-.39,0-.59-.24-.59-.72s.2-.74.59-.78H183Z"/><path class="cls-1" d="M205.23,108.89c-.47,0-.73-.28-.77-.84s.3-.86.77-.9h11.49q.72.06.78.9t-.78.84h-4.9v5.92h5.26a.85.85,0,0,1,.84.9q-.06.84-.84.84h-5.26V120a.92.92,0,0,1-.9.9q-.9-.06-.9-.84v-3.53h-5.38q-.66,0-.72-.84.12-.84.78-.9H210v-5.92Zm2,5.15a34.49,34.49,0,0,0-2.1-3.24.82.82,0,0,1,.12-1.25,1,1,0,0,1,1.32.24,19.78,19.78,0,0,1,2,3,1.22,1.22,0,0,1-.18,1.43C208,114.59,207.55,114.51,207.27,114Zm6-1a27,27,0,0,0,2-3.23.86.86,0,0,1,1.14-.48.88.88,0,0,1,.53,1.13,17.29,17.29,0,0,1-2.15,3.6,1.1,1.1,0,0,1-1.44.29C212.89,114,212.85,113.6,213.25,113.08Z"/><path class="cls-1" d="M231.9,112.54h3.41q.66-.9.9-1.32l.42-.54a1.08,1.08,0,0,1,1.25-.41.77.77,0,0,1,.36,1.13q-.18.24-.42.6l-.42.54h6.83c.44,0,.67.34.71.9s-.27.83-.71.83h-1.8a12.4,12.4,0,0,1-1.55,3.3l1,.36a20.39,20.39,0,0,1,2.34.83.77.77,0,0,1,.48,1,.85.85,0,0,1-1.08.48q-.24-.12-1.08-.42a22.3,22.3,0,0,0-2.93-.9,17.41,17.41,0,0,1-7.48,1.68q-1,0-1-.78t1.08-.72a21.47,21.47,0,0,0,5.32-.89q-4.67-1.2-4.54-1.92c-.12-.28.27-1,1.19-2H231.9c-.48,0-.74-.27-.78-.83S231.42,112.58,231.9,112.54Zm5.5-4.43a2,2,0,0,1-.23-.54c-.16-.44,0-.74.59-.9a1.14,1.14,0,0,1,1.2.54l.36.9h4.07q1.32,0,1.26,1.44l-.18,1.07a2.86,2.86,0,0,0-.06.54,1,1,0,0,1-1,.84q-.9-.12-.78-1a7.36,7.36,0,0,0,.18-1q0-.18-.06-.18h-9.4a.24.24,0,0,0-.17.24v1a1,1,0,0,1-.9,1q-.9-.06-.9-.9v-1.49q-.12-1.68,1.32-1.56Zm1.68,8.92a10.09,10.09,0,0,0,1.56-2.76h-4.31q-.36.48-.84,1a1.39,1.39,0,0,1-.18.3q-.12.24.18.3a21.25,21.25,0,0,0,2.57.84A10,10,0,0,0,239.08,117Z"/><path class="cls-1" d="M270.59,115.29h-4.72V116H271a.74.74,0,0,1,.72.78q-.06.78-.72.78h-3.65a15.44,15.44,0,0,0,3.47,1.61q1,.3.6,1.14a1.19,1.19,0,0,1-1.5.3,24.61,24.61,0,0,1-4.06-2.16v1.74c-.05.44-.32.68-.84.72s-.84-.28-.84-.72v-1.8a21.25,21.25,0,0,1-4.79,2.28,1,1,0,0,1-1.2-.36q-.3-.78.36-1.08a14,14,0,0,0,4.19-1.67h-4.07c-.44,0-.68-.26-.71-.78a.73.73,0,0,1,.71-.78h5.51v-.66h-3.05q-.12.48-1,.48t-.72-.6v-3.83a.94.94,0,0,1-1.31.12c-.36-.4-.32-.81.11-1.25a15,15,0,0,0,2.82-3.42.84.84,0,0,1,1.43.84l-.3.42-.06.12h2.58a1.45,1.45,0,0,1-.3-.66.79.79,0,0,1,.36-1,.94.94,0,0,1,1,.3c.47.64.59,1.08.35,1.32h4.43a.74.74,0,0,1,.72.78q-.06.78-.72.78h-4.72v.54h4.36a.66.66,0,0,1,.66.65q-.06.66-.66.66h-4.36v.54h4.3a.69.69,0,0,1,.72.66.65.65,0,0,1-.72.66h-4.3V114h4.72a.66.66,0,0,1,.66.65Q271.19,115.29,270.59,115.29Zm-6.4-5.56h-3.05v.54h3.05Zm0,1.85h-3.05v.54h3.05Zm-3.05,1.86V114h3.05v-.54Z"/><path class="cls-1" d="M285.35,108.41q-.12-1.44,1.14-1.32h10.35c1,0,1.41.38,1.38,1.26v10.41c.07,1-.44,1.46-1.56,1.38h-10q-1.44.12-1.32-1.44Zm11.19,2.27v-1.49a.37.37,0,0,0-.42-.42h-8.68q-.54-.06-.42.48v8.91q-.06.48.42.42h8.68q.42.06.42-.42v-6.58a.48.48,0,0,1-.54.3h-1.26v4.73c.12,1.28-.49,1.83-1.85,1.67-1.44,0-2.1-.31-2-1.07q0-.72.78-.72l.3.06h.48q.54.06.54-.42v-2.51a17.3,17.3,0,0,1-3.95,3.47q-1.08.6-1.44,0-.6-.84.18-1.32a27.53,27.53,0,0,0,4.49-3.89H288.1q-.6,0-.66-.78c0-.48.26-.73.66-.77H293v-.78q0-.6.84-.66c.55,0,.85.26.89.66v.78h1.14A.68.68,0,0,1,296.54,110.68Z"/><path class="cls-1" d="M319.14,108.53v-1.26c0-.48.27-.73.83-.77s.86.29.9.77v1.26h2.27a1.74,1.74,0,0,1-.47-.3,3.58,3.58,0,0,1-.48-.36.64.64,0,0,1-.18-.9.82.82,0,0,1,1-.24q.72.48,1.2.84.42.6-.06,1h.9q.72.06.78.9-.12.84-.84.84h-4a18.88,18.88,0,0,0,.84,4.42,24.7,24.7,0,0,0,1.19-2.63.74.74,0,0,1,1-.54.86.86,0,0,1,.48,1.14,18.38,18.38,0,0,1-1.91,4c.59,1.16,1,1.72,1.25,1.67.2.2.32-.39.36-1.79a.74.74,0,0,1,.72-.78.85.85,0,0,1,.78.84c-.08,2.47-.5,3.83-1.26,4.07-.92.12-1.93-.72-3-2.52a15.87,15.87,0,0,1-2.81,2.1,1.09,1.09,0,0,1-1.44-.24q-.3-.66.54-1.14a13,13,0,0,0,2.93-2.45,17.66,17.66,0,0,1-1.37-6.16h-4.37q-.18.06-.18.18v1.31h2.69q1.5-.18,1.38,1.38c0,1.36-.1,2.43-.18,3.23a4.1,4.1,0,0,1-.48,1.62c-.4.55-1.32.71-2.75.47a.78.78,0,0,1-.78-.83.77.77,0,0,1,.78-.78,2.6,2.6,0,0,1,.41.06q1,.06,1-.36c.08-.56.16-1.44.24-2.63q0-.54-.6-.54h-1.79a18.71,18.71,0,0,1-1.08,6.4,1.1,1.1,0,0,1-1.26.66.91.91,0,0,1-.42-1.26,16.3,16.3,0,0,0,1.08-6.4V110q-.18-1.62,1.44-1.5Z"/><path class="cls-1" d="M340.06,118.76c2.75-.12,4.34-1.19,4.78-3.23a1,1,0,0,1,1.14-.78.93.93,0,0,1,.72,1.14q-.84,4-6.35,4.55c-.87.12-1.35-.1-1.43-.66S339.14,118.88,340.06,118.76Zm-.48-1.67v-3.41a1.11,1.11,0,0,1,1.19-1.32h10.12a1.16,1.16,0,0,1,1.31,1.32V117a.84.84,0,0,1-.89.84q-.84-.06-.84-.84v-2.58a.42.42,0,0,0-.36-.29h-8.44c-.24,0-.36.14-.36.41v2.58a.85.85,0,0,1-.9.84A.77.77,0,0,1,339.58,117.09Zm1.85-5.39c-1.08,0-1.57-.38-1.49-1.25v-2.16c-.08-.84.33-1.24,1.25-1.2h9.22q1.32,0,1.32,1.2v2c.12,1-.3,1.49-1.26,1.37Zm8.32-1.67a.16.16,0,0,0,.18-.18V109a.39.39,0,0,0-.18-.18h-7.84a.16.16,0,0,0-.18.18v.9a.16.16,0,0,0,.18.18Zm1.56,10.35a17.61,17.61,0,0,0-4-1.44c-.6-.2-.84-.55-.72-1.07a1.14,1.14,0,0,1,1.31-.66,20.38,20.38,0,0,1,4.19,1.49,1,1,0,0,1,.66,1.38C352.5,120.56,352,120.66,351.31,120.38Z"/><path class="cls-2" d="M84.92,8.35C66.5,14.57,54.66,4.64,54.66,4.64S42.83,14.57,24.41,8.35c0,0,6.59,16.56,1.23,45.72,0,0,12.71,12,29,16.19,16.32-4.16,29-16.19,29-16.19C78.32,24.91,84.92,8.35,84.92,8.35M77.18,45.64H63V58.82H46.3V45.64H32.14V30.08H46.3V16.89H63V30.08H77.18Zm-42.05,36c-9.19-2.2-16.89,1-24.81-8.51l.41-.32C17.76,78,21.41,74.7,28.85,78c-4.49-5.28-1.66-9.22-5.75-14.06l.3-.26c9,8.32,4.24,11.25,12,17.46ZM22.85,73.8C16.15,69.61,7.84,70.9,3,59l.37-.14C8.88,66.56,14,64.57,18.43,68.9c-1.89-4.53.39-8.24-1.95-14.61l.4-.13c5.49,8.47,2.61,14,6.4,19.18Zm-9.3-11.16C10.05,58.76,1.31,55.21,0,43.87l.5,0c2,6.69,6.64,6.75,10.16,12.59-.51-5.31,2.3-6.23,2.09-13.24l.42,0c2.66,9.56-1.76,12.47.89,19.2ZM8.06,49.24c-2-4.87-8.77-8.22-6.63-21l.51.12c-.1,8.61,3.55,8.53,5.32,15.4.09-5.67,3.3-6.44,5-12.93l.4.11c-.64,11.22-3.83,11.52-4,18.22ZM6.61,35.9C5.69,30.16,1,25.68,6.39,15.22l.41.2c-2.34,8.61,1,8.85.73,14.33C9.7,24.3,12.31,24.84,15,19.81l.31.17c-3.5,10.6-7.74,10.74-8.11,16ZM9,22.65c.73-3.83-2.4-8.87,4.19-17.32l.26.23c-2.9,6.62-1.12,8.16-2.23,12.22,2.46-3.44,5.15-2.42,8.52-6.78l.25.16c-4.67,8.63-8.7,7.5-10.48,11.69ZM20.73,83.14c10.51,4.26,16-2,27-2.67C58,79.82,70.71,92,70.71,92l-2.09,1.91s-12-16.53-23.09-10.05-18,5.37-25.21-.24Zm-6.43-71C15.72,6,20.88,2.22,24.62.55,22,8.59,16.88,9.43,14.3,12.18M74,81.1C81.76,74.89,77,72,86,63.64l.3.26C82.21,68.74,85,72.68,80.55,78,88,74.7,91.64,78,98.67,72.81l.41.32c-7.92,9.46-15.62,6.31-24.81,8.51Zm12.11-7.76c3.79-5.17.91-10.71,6.4-19.18l.39.13c-2.33,6.37,0,10.08-1.94,14.61,4.39-4.33,9.55-2.34,15.08-10.05l.38.14C101.56,70.9,93.25,69.61,86.55,73.8Zm9.22-11c2.65-6.73-1.77-9.64.89-19.2l.42,0c-.21,7,2.59,7.93,2.09,13.24,3.52-5.84,8.18-5.9,10.16-12.59l.5,0c-1.31,11.34-10.05,14.89-13.55,18.77Zm5.43-13.23c-.19-6.7-3.37-7-4-18.22l.4-.11c1.68,6.49,4.89,7.26,5,12.93,1.77-6.87,5.42-6.79,5.32-15.4l.51-.12c2.13,12.8-4.64,16.15-6.63,21ZM102.2,36c-.37-5.24-4.61-5.38-8.1-16l.31-.17c2.68,5,5.28,4.49,7.46,9.94-.3-5.48,3.07-5.72.73-14.33l.41-.2c5.44,10.46.69,14.94-.22,20.68ZM99.89,22.85c-1.77-4.19-5.8-3.06-10.47-11.69l.25-.16c3.37,4.36,6.06,3.34,8.52,6.78-1.11-4.06.66-5.6-2.24-12.22l.27-.23c6.59,8.45,3.45,13.49,4.19,17.32ZM89.07,83.64c-7.2,5.61-14.07,6.72-25.2.24S40.78,93.93,40.78,93.93L38.69,92s12.73-12.2,22.94-11.55c11,.7,16.52,6.93,27,2.67ZM84.78.55C88.52,2.22,93.68,6,95.1,12.18,92.52,9.43,87.43,8.59,84.78.55M47.39,77h2.3v1H46.08v-.41a2,2,0,0,1,.14-.74,2.33,2.33,0,0,1,.36-.59,2.57,2.57,0,0,1,.46-.47c.17-.13.33-.26.48-.36l.41-.33a2.27,2.27,0,0,0,.31-.31,1.09,1.09,0,0,0,.18-.31.88.88,0,0,0,.06-.33.69.69,0,0,0-.2-.53.91.91,0,0,0-.6-.17,2,2,0,0,0-1.33.55v-1a2.9,2.9,0,0,1,1.59-.46,2.45,2.45,0,0,1,.74.11,1.64,1.64,0,0,1,.55.31,1.33,1.33,0,0,1,.35.49,1.61,1.61,0,0,1,.12.63,1.78,1.78,0,0,1-.12.67,2.17,2.17,0,0,1-.31.53,2.57,2.57,0,0,1-.44.43l-.51.39-.35.25c-.11.08-.21.17-.3.25a1.41,1.41,0,0,0-.2.24.42.42,0,0,0-.08.22m4.87,1.09c-1.29,0-1.93-.91-1.93-2.72a3.71,3.71,0,0,1,.52-2.15,1.75,1.75,0,0,1,1.52-.74c1.25,0,1.88.93,1.88,2.77a3.66,3.66,0,0,1-.51,2.1,1.7,1.7,0,0,1-1.48.74m.05-4.69c-.51,0-.77.64-.77,1.94s.25,1.83.76,1.83.74-.63.74-1.89-.24-1.88-.73-1.88m4.24,4.69c-1.28,0-1.93-.91-1.93-2.72a3.71,3.71,0,0,1,.52-2.15,1.76,1.76,0,0,1,1.52-.74c1.26,0,1.89.93,1.89,2.77a3.58,3.58,0,0,1-.52,2.1,1.69,1.69,0,0,1-1.48.74m.06-4.69c-.52,0-.78.64-.78,1.94s.26,1.83.76,1.83.74-.63.74-1.89-.24-1.88-.72-1.88m2.49,4.41v-1a2.1,2.1,0,0,0,1.27.39,1.15,1.15,0,0,0,.71-.19.67.67,0,0,0,.25-.55.62.62,0,0,0-.31-.56,1.65,1.65,0,0,0-.87-.2h-.5v-.91h.46c.71,0,1.06-.24,1.06-.7s-.27-.66-.81-.66a1.82,1.82,0,0,0-1.06.35v-1a2.93,2.93,0,0,1,1.33-.29,2,2,0,0,1,1.29.38,1.19,1.19,0,0,1,.47,1,1.26,1.26,0,0,1-1.08,1.33v0a1.46,1.46,0,0,1,.91.42,1.17,1.17,0,0,1,.33.84A1.44,1.44,0,0,1,62,77.6a2.36,2.36,0,0,1-1.53.45,2.83,2.83,0,0,1-1.36-.28m.81-47.33c.34-1.61-1.37-3.2-3.42-3.42,0-.73,0-1.93,0-1.92,2.5.06,5.83,1.83,5.69,5-.17,3.9-4,4.95-7.19,5.43-4.29.64-4.36,3.83-1.77,4.64l.06,2.07c-1.8-.48-3.73-1.46-3.91-3.7-.14-1.75.76-4,4.45-4.78s5.61-1.23,6-3.28M55.1,45.9c2.91-.89,2.64-2.59,1-2.94l.06-1.81c3.71,1,3.22,3.87,2.18,4.88-1.61,1.58-5.64,1.11-4.8,3.1l0,1.24a2.14,2.14,0,0,1-1.45-2.24c.1-1,1-1.64,3-2.23m.76,5.48,0-.92a3.13,3.13,0,0,1,.32.15,3.63,3.63,0,0,1,1.66,2.6,6,6,0,0,0-2-1.83m-3-26c-.06,0-2.5,1-3.1,1.19-1,.35-1.59,1.12-2.17,2.61-.27.68-.71,1.66-.53,1.89l-.35.38-.71.41.63-.12-.07.52.67-1a7.49,7.49,0,0,0,3.84-2.2A6.55,6.55,0,0,1,53,27.47c0-.75,0-1.39-.05-2.08m-3.46,3.44a.34.34,0,1,1,.34-.34.34.34,0,0,1-.34.34m6,16.34L54,45.62l-.17-9.18L55.6,36Zm0,2.91-.18,9.74a.49.49,0,0,1-1,0l-.17-9.44Zm-1.81-26c-.19-1.53-.38-3.9,1.53-3.9,1,0,1.41,1,1.31,1.95-.08.8-.55,1.56-.55,1.95l-.2,10.48L53.78,33Zm75.28,26.34V40.29h2.64a9.72,9.72,0,0,1,1.95.12,2.16,2.16,0,0,1,1.17.8,2.52,2.52,0,0,1,.47,1.58,2.67,2.67,0,0,1-.27,1.26,2.26,2.26,0,0,1-.69.8,2.45,2.45,0,0,1-.85.38,9.2,9.2,0,0,1-1.71.12h-1.07v3.06Zm1.64-6.75V44h.9a4.08,4.08,0,0,0,1.3-.13,1,1,0,0,0,.51-.4,1.15,1.15,0,0,0-.07-1.36,1.2,1.2,0,0,0-.66-.36,7.33,7.33,0,0,0-1.18-.06Zm10.24,4.88,1.56.26a2.57,2.57,0,0,1-.95,1.3,2.76,2.76,0,0,1-1.62.45,2.63,2.63,0,0,1-2.27-1,3.33,3.33,0,0,1-.58-2,3.27,3.27,0,0,1,.76-2.3,2.54,2.54,0,0,1,1.94-.83,2.59,2.59,0,0,1,2.07.87,3.84,3.84,0,0,1,.73,2.66h-3.9a1.58,1.58,0,0,0,.37,1.08,1.17,1.17,0,0,0,.9.38.92.92,0,0,0,.62-.2,1.2,1.2,0,0,0,.37-.64m.09-1.57a1.5,1.5,0,0,0-.35-1,1,1,0,0,0-.81-.35,1.07,1.07,0,0,0-.84.37,1.46,1.46,0,0,0-.33,1Zm3.67,3.44V40.29h1.56V44.6l1.82-2.07h1.92l-2,2.15,2.16,3.73h-1.68l-1.48-2.64-.73.76v1.88Zm7.28-8.12h1.56v1.44h-1.56Zm0,2.24h1.56v5.88h-1.56Zm9.42,5.88h-1.56v-3a4.41,4.41,0,0,0-.1-1.23.9.9,0,0,0-.32-.44,1,1,0,0,0-.54-.15,1.23,1.23,0,0,0-.73.22,1.08,1.08,0,0,0-.44.59,5,5,0,0,0-.12,1.35v2.66h-1.56V42.53h1.45v.86a2.39,2.39,0,0,1,2.88-.81,1.56,1.56,0,0,1,.65.47,1.89,1.89,0,0,1,.3.66,4.62,4.62,0,0,1,.09,1Zm2.34.39,1.78.22a.61.61,0,0,0,.21.43,1.17,1.17,0,0,0,.7.16,1.83,1.83,0,0,0,.91-.18.73.73,0,0,0,.31-.39,2.35,2.35,0,0,0,.07-.72v-.86a2.08,2.08,0,0,1-1.76.95,2.16,2.16,0,0,1-1.88-1,3.41,3.41,0,0,1-.54-2,3.21,3.21,0,0,1,.71-2.26,2.26,2.26,0,0,1,1.77-.79,2.15,2.15,0,0,1,1.8,1v-.82h1.46v5.28a5.46,5.46,0,0,1-.17,1.56,2.13,2.13,0,0,1-.48.81,2.27,2.27,0,0,1-.83.46,4.42,4.42,0,0,1-1.31.16,3.43,3.43,0,0,1-2.13-.51,1.61,1.61,0,0,1-.62-1.3V48.8m1.39-3.45a2.14,2.14,0,0,0,.37,1.37,1.12,1.12,0,0,0,.89.44,1.26,1.26,0,0,0,1-.45,2,2,0,0,0,.39-1.32,2.08,2.08,0,0,0-.38-1.36,1.18,1.18,0,0,0-.95-.44,1.14,1.14,0,0,0-.92.43,2,2,0,0,0-.37,1.33m10.66-5.06h1.64v4.4a7.65,7.65,0,0,0,.07,1.36,1.25,1.25,0,0,0,.5.8,1.73,1.73,0,0,0,1.08.3,1.63,1.63,0,0,0,1-.28,1.14,1.14,0,0,0,.43-.71,8.83,8.83,0,0,0,.07-1.38V40.29h1.64v4.27a10.85,10.85,0,0,1-.13,2.06,2.21,2.21,0,0,1-.49,1,2.54,2.54,0,0,1-1,.67,4.26,4.26,0,0,1-1.56.24,4.53,4.53,0,0,1-1.77-.27,2.54,2.54,0,0,1-1-.69,2.41,2.41,0,0,1-.46-.9,10.52,10.52,0,0,1-.16-2.07Zm14.47,8.12h-1.56v-3a4.41,4.41,0,0,0-.1-1.23.92.92,0,0,0-.33-.44,1,1,0,0,0-.54-.15,1.2,1.2,0,0,0-.72.22,1.08,1.08,0,0,0-.44.59,5,5,0,0,0-.12,1.35v2.66h-1.56V42.53h1.45v.86a2.37,2.37,0,0,1,1.94-1,2.43,2.43,0,0,1,.94.19,1.63,1.63,0,0,1,.65.47,1.89,1.89,0,0,1,.3.66,4.62,4.62,0,0,1,.09,1Zm2.48-8.12h1.56v1.44h-1.56Zm0,2.24h1.56v5.88h-1.56Zm5.69,5.88-2.38-5.88h1.64l1.11,3,.32,1c.08-.26.14-.43.16-.51s.11-.33.17-.5l1.12-3H202l-2.34,5.88Zm9-1.87,1.55.26a2.55,2.55,0,0,1-.94,1.3,2.76,2.76,0,0,1-1.62.45,2.63,2.63,0,0,1-2.27-1,3.33,3.33,0,0,1-.58-2,3.27,3.27,0,0,1,.76-2.3,2.54,2.54,0,0,1,1.94-.83,2.62,2.62,0,0,1,2.07.87,3.84,3.84,0,0,1,.73,2.66H205a1.59,1.59,0,0,0,.38,1.08,1.17,1.17,0,0,0,.9.38.9.9,0,0,0,.61-.2,1.2,1.2,0,0,0,.38-.64m.09-1.57a1.5,1.5,0,0,0-.35-1,1,1,0,0,0-.81-.35,1.07,1.07,0,0,0-.84.37,1.46,1.46,0,0,0-.33,1Zm5.21,3.44H211V42.53h1.44v.83a2.63,2.63,0,0,1,.67-.78,1.29,1.29,0,0,1,.68-.19,1.94,1.94,0,0,1,1,.3l-.48,1.36a1.38,1.38,0,0,0-.73-.26A.87.87,0,0,0,213,44a1.2,1.2,0,0,0-.35.65,8.89,8.89,0,0,0-.14,2Zm3.29-1.67,1.56-.24a1.2,1.2,0,0,0,.41.69,1.41,1.41,0,0,0,.85.23,1.51,1.51,0,0,0,.91-.22.48.48,0,0,0,.21-.41.44.44,0,0,0-.11-.3,1.28,1.28,0,0,0-.52-.2,8.35,8.35,0,0,1-2.39-.76,1.51,1.51,0,0,1-.7-1.33,1.62,1.62,0,0,1,.6-1.28,2.81,2.81,0,0,1,1.88-.53,3.27,3.27,0,0,1,1.79.4,2,2,0,0,1,.81,1.16l-1.47.27a.86.86,0,0,0-.36-.52,1.29,1.29,0,0,0-.75-.19,1.63,1.63,0,0,0-.88.18.36.36,0,0,0-.18.31.34.34,0,0,0,.16.28,5.64,5.64,0,0,0,1.46.44,4.27,4.27,0,0,1,1.73.7,1.41,1.41,0,0,1,.49,1.15,1.77,1.77,0,0,1-.68,1.4,3,3,0,0,1-2,.58,3.24,3.24,0,0,1-1.9-.49,2.26,2.26,0,0,1-.92-1.32m7.77-6.45h1.56v1.44h-1.56Zm0,2.24h1.56v5.88h-1.56Zm6.77,0v1.24h-1.07v2.37a6,6,0,0,0,0,.84.35.35,0,0,0,.14.2.45.45,0,0,0,.26.08,2,2,0,0,0,.63-.15l.13,1.21a3.17,3.17,0,0,1-1.23.23,2.06,2.06,0,0,1-.76-.14A1.13,1.13,0,0,1,228,48a1.37,1.37,0,0,1-.22-.61,6.54,6.54,0,0,1-.05-1.09V43.77H227V42.53h.72V41.36l1.56-.91v2.08Zm1.25,0h1.66l1.4,4.18,1.38-4.18h1.61l-2.08,5.66-.37,1a4.82,4.82,0,0,1-.39.79,1.66,1.66,0,0,1-1,.7,3.18,3.18,0,0,1-.79.09,4.41,4.41,0,0,1-.89-.09L232,49.49a3.37,3.37,0,0,0,.66.07,1,1,0,0,0,.81-.32,2.19,2.19,0,0,0,.4-.81Zm12-2.24h1.64v8.13h-1.64Zm9.46,8.12h-1.56v-3a4.41,4.41,0,0,0-.1-1.23.85.85,0,0,0-.32-.44,1,1,0,0,0-.54-.15,1.23,1.23,0,0,0-.73.22,1.13,1.13,0,0,0-.44.59,5,5,0,0,0-.12,1.35v2.66h-1.56V42.53h1.45v.86a2.39,2.39,0,0,1,2.88-.81,1.56,1.56,0,0,1,.65.47,1.73,1.73,0,0,1,.3.66,4.62,4.62,0,0,1,.09,1Zm5.19-5.88v1.24h-1.07v2.37a6,6,0,0,0,0,.84.35.35,0,0,0,.14.2.46.46,0,0,0,.27.08,2,2,0,0,0,.62-.15l.14,1.21a3.26,3.26,0,0,1-1.24.23,2.06,2.06,0,0,1-.76-.14,1.13,1.13,0,0,1-.49-.37,1.37,1.37,0,0,1-.22-.61,7.93,7.93,0,0,1,0-1.09V43.77h-.72V42.53h.72V41.36l1.56-.91v2.08Zm5.4,4,1.55.26a2.57,2.57,0,0,1-.95,1.3,2.75,2.75,0,0,1-1.61.45,2.65,2.65,0,0,1-2.28-1,3.4,3.4,0,0,1-.58-2,3.28,3.28,0,0,1,.77-2.3,2.52,2.52,0,0,1,1.93-.83,2.62,2.62,0,0,1,2.08.87,3.9,3.9,0,0,1,.72,2.66h-3.9a1.59,1.59,0,0,0,.38,1.08,1.16,1.16,0,0,0,.89.38.92.92,0,0,0,.62-.2,1.2,1.2,0,0,0,.38-.64m.09-1.57a1.55,1.55,0,0,0-.35-1,1.08,1.08,0,0,0-.81-.35,1.1,1.1,0,0,0-.85.37,1.41,1.41,0,0,0-.32,1Zm5.21,3.44h-1.56V42.53h1.45v.83a2.63,2.63,0,0,1,.67-.78,1.28,1.28,0,0,1,.67-.19,2,2,0,0,1,1,.3l-.48,1.36a1.41,1.41,0,0,0-.74-.26.87.87,0,0,0-.55.18,1.28,1.28,0,0,0-.36.65,9.1,9.1,0,0,0-.13,2Zm9.19,0h-1.56v-3a4.41,4.41,0,0,0-.1-1.23.85.85,0,0,0-.32-.44,1,1,0,0,0-.54-.15,1.26,1.26,0,0,0-.73.22,1.13,1.13,0,0,0-.44.59,5,5,0,0,0-.12,1.35v2.66h-1.55V42.53h1.44v.86a2.38,2.38,0,0,1,1.94-1,2.44,2.44,0,0,1,1,.19,1.53,1.53,0,0,1,.64.47,1.74,1.74,0,0,1,.31.66,5.43,5.43,0,0,1,.08,1Zm3.66-4.09-1.42-.25a2.23,2.23,0,0,1,.82-1.27,3,3,0,0,1,1.73-.41,3.76,3.76,0,0,1,1.55.25,1.56,1.56,0,0,1,.72.63,3.17,3.17,0,0,1,.21,1.39l0,1.82a6.07,6.07,0,0,0,.08,1.14,3.14,3.14,0,0,0,.28.79H284.2c0-.1-.09-.25-.15-.46l-.06-.18a2.74,2.74,0,0,1-.85.58,2.48,2.48,0,0,1-1,.2,2,2,0,0,1-1.44-.5,1.75,1.75,0,0,1-.28-2.13,1.56,1.56,0,0,1,.67-.6,4.94,4.94,0,0,1,1.24-.36,8.58,8.58,0,0,0,1.51-.39v-.15a.8.8,0,0,0-.22-.64,1.33,1.33,0,0,0-.84-.19,1.12,1.12,0,0,0-.65.16,1.13,1.13,0,0,0-.37.57m2.08,1.27-.95.24a2.88,2.88,0,0,0-.85.27.64.64,0,0,0-.3.55.77.77,0,0,0,.24.56.86.86,0,0,0,.62.24,1.35,1.35,0,0,0,.81-.28,1,1,0,0,0,.37-.51,3.19,3.19,0,0,0,.06-.76Zm6.67-3.06v1.24h-1.06v2.37a6,6,0,0,0,0,.84.35.35,0,0,0,.14.2.45.45,0,0,0,.26.08,2,2,0,0,0,.63-.15l.13,1.21a3.17,3.17,0,0,1-1.23.23,2.06,2.06,0,0,1-.76-.14,1.23,1.23,0,0,1-.5-.37,1.5,1.5,0,0,1-.21-.61,6.54,6.54,0,0,1-.05-1.09V43.77h-.72V42.53h.72V41.36l1.56-.91v2.08Zm2-2.24h1.56v1.44h-1.56Zm0,2.24h1.56v5.88h-1.56Zm3.71,2.86a3.1,3.1,0,0,1,.38-1.5,2.52,2.52,0,0,1,1.08-1.11,3.18,3.18,0,0,1,1.57-.39,2.94,2.94,0,0,1,2.19.87,3,3,0,0,1,.85,2.19,3.05,3.05,0,0,1-.86,2.22,2.91,2.91,0,0,1-2.17.88,3.37,3.37,0,0,1-1.55-.37,2.5,2.5,0,0,1-1.11-1.07,3.53,3.53,0,0,1-.38-1.72m1.59.08a1.92,1.92,0,0,0,.42,1.34,1.31,1.31,0,0,0,1,.47,1.33,1.33,0,0,0,1-.47,2,2,0,0,0,.41-1.35,2,2,0,0,0-.41-1.33,1.33,1.33,0,0,0-1-.47,1.31,1.31,0,0,0-1,.47,1.94,1.94,0,0,0-.42,1.34m12,2.94h-1.55v-3a4.85,4.85,0,0,0-.1-1.23.92.92,0,0,0-.33-.44,1,1,0,0,0-.54-.15,1.2,1.2,0,0,0-.72.22,1,1,0,0,0-.44.59,5,5,0,0,0-.12,1.35v2.66h-1.56V42.53h1.45v.86a2.37,2.37,0,0,1,1.94-1,2.43,2.43,0,0,1,.94.19,1.53,1.53,0,0,1,.64.47,1.74,1.74,0,0,1,.31.66,4.73,4.73,0,0,1,.08,1Zm3.66-4.09L312,44.07a2.28,2.28,0,0,1,.82-1.27,3,3,0,0,1,1.73-.41,3.82,3.82,0,0,1,1.56.25,1.48,1.48,0,0,1,.71.63,3.17,3.17,0,0,1,.21,1.39v1.82a6.28,6.28,0,0,0,.07,1.14,3.14,3.14,0,0,0,.28.79h-1.54c0-.1-.09-.25-.15-.46a1.2,1.2,0,0,0-.06-.18,2.74,2.74,0,0,1-.85.58,2.44,2.44,0,0,1-1,.2,2,2,0,0,1-1.43-.5,1.62,1.62,0,0,1-.53-1.24,1.65,1.65,0,0,1,.24-.89,1.56,1.56,0,0,1,.67-.6A5.07,5.07,0,0,1,314,45a8.33,8.33,0,0,0,1.51-.39v-.15a.8.8,0,0,0-.22-.64,1.33,1.33,0,0,0-.84-.19.92.92,0,0,0-1,.73m2.08,1.27c-.2.06-.51.14-.95.24a2.68,2.68,0,0,0-.84.27.63.63,0,0,0-.31.55.77.77,0,0,0,.24.56.87.87,0,0,0,.63.24,1.32,1.32,0,0,0,.8-.28,1,1,0,0,0,.37-.51,3.19,3.19,0,0,0,.06-.76Zm4-5.3h1.55v8.13h-1.55Zm8.14,8.12V40.29h1.64v3.2h3.22v-3.2h1.64v8.12h-1.64V44.86h-3.22v3.55Zm8.73-3a3.21,3.21,0,0,1,.38-1.5,2.6,2.6,0,0,1,1.09-1.11,3.14,3.14,0,0,1,1.56-.39,2.94,2.94,0,0,1,2.19.87,3.24,3.24,0,0,1,0,4.41,2.88,2.88,0,0,1-2.17.88,3.33,3.33,0,0,1-1.54-.37,2.52,2.52,0,0,1-1.12-1.07,3.64,3.64,0,0,1-.38-1.72m1.6.08a1.92,1.92,0,0,0,.41,1.34,1.33,1.33,0,0,0,1,.47,1.31,1.31,0,0,0,1-.47,2,2,0,0,0,.41-1.35,1.91,1.91,0,0,0-.41-1.33,1.31,1.31,0,0,0-1-.47,1.33,1.33,0,0,0-1,.47,1.94,1.94,0,0,0-.41,1.34m6,1.27,1.57-.24a1.14,1.14,0,0,0,.4.69,1.44,1.44,0,0,0,.86.23,1.55,1.55,0,0,0,.91-.22.5.5,0,0,0,.2-.41.44.44,0,0,0-.11-.3,1.28,1.28,0,0,0-.52-.2,8.47,8.47,0,0,1-2.39-.76,1.51,1.51,0,0,1-.7-1.33,1.59,1.59,0,0,1,.61-1.28,2.78,2.78,0,0,1,1.87-.53,3.33,3.33,0,0,1,1.8.4,2,2,0,0,1,.8,1.16l-1.46.27a1,1,0,0,0-.36-.52,1.34,1.34,0,0,0-.75-.19,1.61,1.61,0,0,0-.88.18.36.36,0,0,0-.18.31.33.33,0,0,0,.15.28,5.64,5.64,0,0,0,1.46.44,4.27,4.27,0,0,1,1.74.7,1.43,1.43,0,0,1,.48,1.15,1.79,1.79,0,0,1-.67,1.4,3,3,0,0,1-2,.58,3.26,3.26,0,0,1-1.91-.49,2.26,2.26,0,0,1-.92-1.32m7.73-4.21h1.45v.86a2.32,2.32,0,0,1,.77-.72,2.16,2.16,0,0,1,1.07-.28,2.25,2.25,0,0,1,1.74.81,3.23,3.23,0,0,1,.72,2.24,3.3,3.3,0,0,1-.73,2.29,2.22,2.22,0,0,1-1.74.82,2,2,0,0,1-.89-.2,3.06,3.06,0,0,1-.83-.66v3h-1.56Zm1.54,2.84a2.24,2.24,0,0,0,.4,1.47,1.21,1.21,0,0,0,1,.47,1.12,1.12,0,0,0,.9-.43,2.25,2.25,0,0,0,.36-1.43,2.13,2.13,0,0,0-.37-1.38,1.16,1.16,0,0,0-.92-.45,1.19,1.19,0,0,0-.95.45,1.94,1.94,0,0,0-.38,1.3m6.35-5.08h1.56v1.44h-1.56Zm0,2.24h1.56v5.88h-1.56Zm6.76,0v1.24h-1.06v2.37a6,6,0,0,0,0,.84.35.35,0,0,0,.14.2.45.45,0,0,0,.26.08,2,2,0,0,0,.63-.15l.13,1.21a3.17,3.17,0,0,1-1.23.23,2.06,2.06,0,0,1-.76-.14,1.17,1.17,0,0,1-.5-.37,1.5,1.5,0,0,1-.21-.61,6.54,6.54,0,0,1,0-1.09V43.77h-.72V42.53h.72V41.36l1.56-.91v2.08Zm3.16,1.79-1.42-.25A2.28,2.28,0,0,1,369,42.8a3,3,0,0,1,1.73-.41,3.82,3.82,0,0,1,1.56.25,1.48,1.48,0,0,1,.71.63,3.17,3.17,0,0,1,.21,1.39l0,1.82a6.07,6.07,0,0,0,.08,1.14,3.14,3.14,0,0,0,.28.79H372c0-.1-.09-.25-.15-.46l-.06-.18a2.74,2.74,0,0,1-.85.58,2.44,2.44,0,0,1-1,.2,2,2,0,0,1-1.43-.5,1.62,1.62,0,0,1-.53-1.24,1.65,1.65,0,0,1,.24-.89,1.56,1.56,0,0,1,.67-.6,5.07,5.07,0,0,1,1.24-.36,8.33,8.33,0,0,0,1.51-.39v-.15a.8.8,0,0,0-.22-.64,1.33,1.33,0,0,0-.84-.19.92.92,0,0,0-1,.73m2.08,1.27c-.2.06-.51.14-.95.24a2.68,2.68,0,0,0-.84.27.63.63,0,0,0-.31.55.77.77,0,0,0,.24.56.87.87,0,0,0,.63.24,1.32,1.32,0,0,0,.8-.28,1,1,0,0,0,.37-.51,3.19,3.19,0,0,0,.06-.76Zm4-5.3h1.55v8.13h-1.55Zm-85.15-33a6.9,6.9,0,0,1,3.34,1.76q.39.59-.3,1.08c-.19.19-.26.29-.19.29v18c.13.65-.46,1.05-1.77,1.18s-1.7.1-1.57-.49V27.51H276v1.18c.27.52-.39.88-2,1.08q-1.36.39-1.17-.69V8.5c-.07-.53,0-.82.29-.89a2.9,2.9,0,0,1,1.57.5c.2.12.49.29.88.48.59.27.95.36,1.08.3h12.65c.13,0,.29-.23.49-.69s.49-.81.68-.88m-13,2.06c-1.05,0-1.54.42-1.48,1.27V23.3h5.2V17.81h-2.94a3.11,3.11,0,0,1-.88-.1q-.11-.2.39-.3h3.43V13h-3.43a1.25,1.25,0,0,1-.88-.21c-.13-.12,0-.22.39-.29h8.14q.09.11.78-.78c.39-.59.66-.88.79-.88A6.68,6.68,0,0,1,289,12.42c.26.26.33.42.2.49s-.36.16-.88.1H284v4.31h.89c.12.06.39-.23.78-.89a2.86,2.86,0,0,1,.69-.78A8.1,8.1,0,0,1,288.52,17q.39.5.3.69c-.07.13-.27.16-.59.1H284v.68c3.66.33,5,1.47,4.12,3.44l1.86,1V9.38ZM276,27.12h14V23.69H276Zm8-8V23.3h2.36c.06,0,.19-.3.39-.89a1.69,1.69,0,0,1-1.37-1.47A2.52,2.52,0,0,0,284,19.08m24.28,4.51a2.44,2.44,0,0,1-1.86,1.18,1,1,0,0,1-1.18-.78,2.36,2.36,0,0,0-1.67-1.38v6.08c-.06.91-.65,1.4-1.76,1.47a.78.78,0,0,1-.88-1V8.6c-.07-.53.1-.73.49-.6.91.27,1.63.5,2.15.69h1.87l.29-.39c.4-.53.69-.79.88-.79A8.57,8.57,0,0,1,309.67,10a1.64,1.64,0,0,1-.5.49,2.49,2.49,0,0,0-1,.69q-2.64,3.33-2.84,4.61c0,.06.16.23.49.49,2,1.44,3,3.14,3,5.1a12.77,12.77,0,0,0,.59-2.85,2.57,2.57,0,0,1,.2-.68q.68-.49,3.42.78v-3H307.8a.92.92,0,0,1-.68-.19c-.07-.07.06-.13.38-.2h10.89c.13,0,.42-.39.88-1.18a3.78,3.78,0,0,1,.79-1c.52.33,1.37.95,2.54,1.87.27.32.36.52.3.58s-.33.17-.79.1h-5.29c-.59,0-.85.39-.78,1.18v1.18q5.1,1.95,6.07,4.7c.4,1.51.16,2.61-.68,3.33-1.25.66-2.06.3-2.45-1.07a3.26,3.26,0,0,1-.1-1c.26-2.1-.69-3.86-2.84-5.3v9c0,1.9-1.22,2.81-3.63,2.74-.2-.06-.33-.29-.4-.68a2.34,2.34,0,0,0-1.76-2.06c-.58-.07-.91-.1-1-.1s.13-.13.59-.19a6.39,6.39,0,0,0,2.75-.2c.32-.13.48-.59.48-1.37V19.27A8.33,8.33,0,0,0,311.62,21c-2.74,4.32-4.34,6.24-4.8,5.79a14.65,14.65,0,0,0,.59-1.38c.26-.52.56-1.14.88-1.86M305.94,9.18h-1.47c-.72-.07-1,.23-.89.88V22.21a2,2,0,0,0,2.45-.78c.72-1.89.27-3.79-1.37-5.68a15.11,15.11,0,0,1,.3-1.57,40.63,40.63,0,0,0,1-5m12.55-2.25c.32,0,1.08.52,2.25,1.57.52.58.59.88.2.88H310.45c-.26,0-.43-.07-.49-.2s.16-.13.49-.19h6.66c.13,0,.39-.37.79-1.08s.45-.92.59-1m26.65.58a5,5,0,0,1,1.76,1.38,2.87,2.87,0,0,0,.69.49c.19.19.26.36.19.48s-.26.2-.58.2H332.79c-1.31-.2-1.86.43-1.67,1.87V27.12a8.83,8.83,0,0,0,6.57-7.74H332.2a.72.72,0,0,1-.49-.11c-.06-.12,0-.22.19-.29h.69a22.46,22.46,0,0,0,2.06-7c-.06-1.11.29-1.5,1.08-1.17,1.76.39,2.68.68,2.74.88s-.13.33-.39.59a6.63,6.63,0,0,0-1.27,1.76h5.49l.1-.2c.78-1.1,1.3-1.66,1.56-1.66a8.49,8.49,0,0,1,2.55,1.66c.2.27.26.46.2.6a1.83,1.83,0,0,1-.69.09H342.2c-.85-.06-1.24.36-1.18,1.28a13.87,13.87,0,0,0-.19,1.76c-.07.72-.1,1.18-.1,1.37h2.84c.78-1.24,1.37-1.89,1.76-1.95s1,.38,1.87,1.17a1.41,1.41,0,0,0,.39.29c.26.33.36.56.29.69s-.32.26-.78.2h-6.47c-.19.91-.33,1.53-.39,1.86a10.21,10.21,0,0,1,4.9,1.86,2.31,2.31,0,0,1,.49,2.75,1.33,1.33,0,0,1-2.16.58c-.33-.13-.62-.62-.88-1.47A5,5,0,0,0,340,21.82q-1.86,4.82-8.92,5.59V28h13.82a1,1,0,0,1,.2-.49c.65-.85,1.14-1.27,1.47-1.27a7.65,7.65,0,0,1,2.55,1.46c.19.2.26.36.19.5a1.72,1.72,0,0,1-.88.29H331.61a2.45,2.45,0,0,0-.68.49,4.91,4.91,0,0,1-.88,1,6.3,6.3,0,0,1-2.66-1.57c-.06-.19.07-.42.4-.69s.49-.29.49-.48V9.47c-.07-.58,0-.94.19-1.07s.59-.2,1.18,0a7.46,7.46,0,0,0,1,.49,14.3,14.3,0,0,1,1.66.78h10.89c.91-1.37,1.57-2.1,2-2.16m-8.63,7.06A24.68,24.68,0,0,1,333,19h4.7c0-.45,0-1.21.1-2.25,0-.59,0-1.31.1-2.16ZM355.42,8.2a4.33,4.33,0,0,0,.78.39,10.48,10.48,0,0,1,1.28.4h1.27c.07,0,.14-.13.2-.4a1.52,1.52,0,0,1,.79-.88A5.55,5.55,0,0,1,363,9.87a.66.66,0,0,1-.59.48,1.39,1.39,0,0,0-.69.3,45.8,45.8,0,0,0-2.94,5.1c0,.13.16.32.49.58,2.49,1.71,3.43,3.8,2.84,6.28a3.41,3.41,0,0,1-3.52,2.26c-.26,0-.36-.24-.3-.69a1.6,1.6,0,0,0-1.17-1.67v6.37c.06.46-.52.72-1.77.79-.78.2-1.11,0-1-.59V9c-.06-.53,0-.82.1-.88a1.82,1.82,0,0,1,1,.09m2.64,1.18c-.71,0-1,.22-1,.68V22.21a.27.27,0,0,0,.19.11A1.92,1.92,0,0,0,359,22a4.76,4.76,0,0,0,.59-3.72,5.34,5.34,0,0,0-1.28-2.06c-.13-.13-.2-.23-.2-.3a63.48,63.48,0,0,1,1.09-6.56Zm16.08,7.25a9.25,9.25,0,0,1,2.55,1.86c.13.26.17.46.1.59s-.23.1-.49.1h-3.82c-.72,0-1.08.29-1.08.88l.1.2v5.29c-.13,1.31.29,1.9,1.27,1.77,1,.06,1.7-.95,2.16-3a1.86,1.86,0,0,1,.29-1c.06-.07.1.13.1.58-.2,1.57.23,2.65,1.28,3.24.39.26.58.43.58.49-.19,1-1,1.63-2.45,2a24.44,24.44,0,0,1-3.73.1c-1.69,0-2.45-.88-2.25-2.65V19.18h-1q-.5,8.34-6.57,10.19c-3.07.85-3.82.89-2.25.1q6-1.66,5.68-10.29h-2.25c-.2,0-.33,0-.39-.1s0-.23.19-.29h10.1a3.44,3.44,0,0,0,.69-.88c.52-.86.91-1.28,1.17-1.28M370.71,8.4a1.87,1.87,0,0,1-1.28,2.25h3.05l.29-.39c.33-.52.62-.79.89-.79a5.57,5.57,0,0,1,3,2.75c-.13.2-.48.29-1.08.29a3,3,0,0,0-2.74,1.08c.65.53,1.08.89,1.27,1.08v.1c.46.46.43.65-.1.59h-9.6c-.33,0-.52-.07-.59-.2s0-.23.29-.3h6.48l.29-.49c.52-.91.85-1.37,1-1.37a1,1,0,0,1,.39.2c-.07,0,0,0,.2.1a22.26,22.26,0,0,0,.29-2.25h-8.23c.39,1.75.36,2.83-.1,3.23a1.82,1.82,0,0,1-2.16.58,1.4,1.4,0,0,1-.49-1.95,2.65,2.65,0,0,1,.49-.59,3,3,0,0,0,1-2.16c-.07-.46,0-.65.2-.59a4.06,4.06,0,0,1,.78,1.08h3.53a1.93,1.93,0,0,1-.39-1.38A2.23,2.23,0,0,0,365.91,7c-.39-.52.52-.55,2.75-.09,1.17.32,1.86.81,2,1.47M140.39,13.79c0-1.74.34-4.22-.93-5.46a10.23,10.23,0,0,0-1.31-1.08,9.54,9.54,0,0,0-2.4-1.59c-.5-.3-2.56-2.08-2.25.06A10.21,10.21,0,0,1,136.16,9a5.82,5.82,0,0,1,.92,3.62c0,1.3,0,2.59-.05,3.93a12.83,12.83,0,0,0-.15,1.79c.05.7-1.29-.4-1.85-.46-.49-.72-2.29-.51-2.55-1.12-2.16-1.16-.64,1.54-.51,2.24.56,2.92-1.11,4.35-1.64,6.85-.21.37-1.06.87-1.17,1.07-.72.32,0,3.23.21,3.84,1,1,2.34-.14,3-.93a6.89,6.89,0,0,0,1.78-1.12c.31-.54,2.08-2.14,2.7-2.15.07,1.16-.73,4,1.23,3.69a6.78,6.78,0,0,1,.77-1.28,8.55,8.55,0,0,0,.79-2.61c.33-3.85,1.13-8,.73-12.56m-3.47,8.68c-.12.56.11,1.6-.15,2-.2.29-.54.37-.72.61a9.94,9.94,0,0,1-1.83,1c-.84.41-1.57.85-2.56,1.27-1.42.08-1-1.28-.2-1.68.55-.83,1.33-2.46,2.15-3a4.74,4.74,0,0,1,.7-1c.11-.38,1.39-.59,1.74-.91s.4-.74.62-1c.58.09.35,2.19.25,2.61m21.72-.42c-3-.73-5.32,2.63-8.53,1.44,0-.58.77-.91,1-1.44.43-.46,1.84-1.63.67-2.65.5-1,3.08-.84,4-1.33,1.45-.4,1.93-2.22,1.89-3.62a6.2,6.2,0,0,1-1.38-.46c-.14-.28-1.8-1.84-2-1.73-.66.29-.22,1.87-.46,2.34a8.71,8.71,0,0,1-1.57,1.18c-.82.92-1.29-.24-1.29-1.1A7.72,7.72,0,0,0,149,9.81a14.53,14.53,0,0,0-2-1.65c-.54,2.08-1,3.3-1.43,5.11-.78,3.18.1,7.11,1.07,10.17.65,2.09,1.94,4.13,4.39,3.37.38-.11.62-.34,1-.46.52-.65,2.16-.47,2.91-.66a9.16,9.16,0,0,0,2.1-.77c.49-.89,1.9-1.49,1.59-2.87M178.49,1c.49,1.78,1.76,3.21,1.59,5.26,0,.16,0,.16-.1.25-.39.62.31,1.51.71.72A2.33,2.33,0,0,0,181.3,7a4.35,4.35,0,0,0,1.28-1.22,2.84,2.84,0,0,0,2-.3c.35-.76,1.11-1.29.72-2.25a29.23,29.23,0,0,0-2.86-2.15c-.55-.11-4.65-2.34-3.94,0M175,14c1.66.59,3.07,1.56,4.86.67s3.31-3.38,5.36-4.44c.78-.41,3-1.64.77-1.85a28.48,28.48,0,0,1-4.24,1.13c-1.65.53-3.33,1.44-5.15,1.94-.94.38-3,1-1.6,2.55m9.61,7.61c0-1.4-3,.05-3.37.21,0-.05,0-.06,0-.05.26-1.07,2.41-2.39,3.22-3.27.45-.41,2.39-1.46,2.13-2.12-.33-.83-3.87-1.15-4.23-.38-1.38.27-2.55,2-3.92,2.35a10.44,10.44,0,0,0-2,1.28c-1.1-.12-1.66-2.25-2.19-.41a22.56,22.56,0,0,0-.2,5.29A4.1,4.1,0,0,0,175.53,27c.5-1,1.48-1.62,1.84-2.56.2-.52-.06-1.11.1-1.69.06-.89,1.22-1.36,1.54-.62.26,1-1.57,1.6,0,2.87-.07.8-1.55,1.34-2.1,1.68-.41.9-2.28,1-2.81,1.79-.27.09-1,.43-1.13.67s-.57.21-.66.41c-.66.43-1-.09-1.73.16-1,.32.71,4.79,2.34,3.41a5.91,5.91,0,0,0,1.8-1.79,37,37,0,0,1,2.72-2.88c.3-.27.79-.91,1.16-.94.34-.5,1.16,1.63.41,2.24-.21.36-1.51.39-1,1.28a2.64,2.64,0,0,1,1.33.51c.45.44.35,1.13.87,1.53a.73.73,0,0,0,1.07.36c.42-.36.15-1.49.1-2a16.19,16.19,0,0,0-.91-4.09,7.43,7.43,0,0,1-.36-.87c-.26-1.69.9-1.84,2-2.4.18-.29,3.31-1.67,2.55-2.51m4.5,5.16c-.21-.92-1.32-1.3-1.74-2.13-.63-.43-2.21-1.19-2.86-.42a7.27,7.27,0,0,0,.51,3.38c.49.83,1.52,2.25,2.76,2,1-.18,1.65-1.68,1.33-2.87m31.87-11.29c.56-.8,1.8-1.35,2.3-2.31.77-.55.46-1.6-.42-1.55-.53,0-.95.28-1.32.28s-1.85,1.74-2.34,2.14a5.56,5.56,0,0,1-1.9,1.29c-.64-1.79-.16-5.12.15-6.76.11-.54.64-1.33-.15-2C217,5.79,215.32,5,214.71,4.7c-4.33-2-.87,3.85-.87,5,0,2.18,1.22,7.27-1.13,8.28-2,.46-3.19,1.64-5.2,2.05-.19.47-1.76.61-2,1.16a12.21,12.21,0,0,1-2.62.82c-1.22.2-1.14-.81-2-.61-.11.64-.39,2.94.26,3.38.65,1,1.72.73,2.55.51,3.42-.92,5.48-4.56,9.3-4.6,0,2.2-1.47,3.89-3.06,5.16C209,27.11,206,27,205.87,29a12.56,12.56,0,0,0,9.31-4.48c1.16-1.32,1.27-3.56,1.83-5.18.55-1.82,2.52-2.93,3.93-3.88m5,11.23c-.54-1.28-1.75-2-2.77-3.17-.27-.22-1.16-1-1.53-1-1.28-.41-.66,1.9-.51,2.36a35.44,35.44,0,0,0,1.28,3.52c.78.12,4,0,3.53-1.69M240.88,8.23c1.44,1.3,3.16,3,3.57,5,.1.35.87,3.73,1.49,2.5a2.26,2.26,0,0,0,1.23-3,7.77,7.77,0,0,0-3-3.78c-.27-.38-1.35-.77-1.75-1.08-.8-.6-1.81-1.52-1.53.41m-.11,7.46c.24.82.06,5.32,2.1,3.23.34-1,.66-1.78,0-2.83-.88-.4-.83-1.93-2.25-1.77,0,.21.13,1.24.15,1.37m20.59-9.85c-.24-.55-2.47-.45-3-.37a7.35,7.35,0,0,0-1.12.37c-.61.18-1.3.59-1.9.7-1.79.34-.77-1-.36-1.73.16-.8.86-1.38.93-2.24a1.92,1.92,0,0,0-1-2c-.87-.38-.71,1.34-.79,1.71s-.47,1.92-1,2.1a3.93,3.93,0,0,1-2.46,1.38,11.56,11.56,0,0,1-1.53-.06c-1.24,0,.18,1.48.47,1.64s.78-.06,1.06,0c.07.52-.46.62-.5,1-1.48.8,1.24.48,1.42.46a2.42,2.42,0,0,1-.82,1.26c-.53.46-1.77.5-2,1,.2.61.9.37.39,1.15-.17.26-.43.38-.55.64a3.25,3.25,0,0,0-.7.87c-.26,1.21.37.8.92.52.76-.4,1.27-1.64,2.25-1.59.1,0,1.63.87,1,1.12-.77,2.78,1.3-.07,2.56.61-.82,1.2-3.18,1.72-4.29,2.3-1.35.7-2.87,1.74-4.39,2.35-.48.73-2.09,1.34-2.87,1.89-.17.13-.63.2-.71.36-1.43,1,2.21.65,2.61.56,1.08-.25,3.71-.91,4.39-1.93,2.36-.66,4.08-3.5,6.28-4.3,0,.07,0,.08.11.05-.21,1.06-1.56,2.19-2.25,2.92a8.64,8.64,0,0,1-1.08,1c-.46.25-1.33,1.72-.19,1.25.73-.3,1.17-.58,1.88-.87s2.58-.83,2.86-1.75c.47-.46,1.28-1,1.53-1.74a3.63,3.63,0,0,0,.26-.56c.51-2-.84-1.91-2.51-2,.09-.64,2-2,2.35-2.45a10.65,10.65,0,0,1,1.58-2c.36-.53,1.95-2.93,1.18-3.72m-3.93,3.62a10.81,10.81,0,0,1-2.35,3.12c-.92.52-.55-.23-.82-1.19-.17-.57-.7-1.87-1.18-.45-.18.26-.13.83-.35,1.18a1.22,1.22,0,0,1-.92-1,3,3,0,0,1,.81-1.53,3.58,3.58,0,0,1,1.13-1.48c.88-.21,4.45-.06,3.68,1.38m-1.84,13.18c-.88-1-2.64-.35-3.58-.05a31.06,31.06,0,0,1-3.93.92c-1.6.58-3.16,1.65-4.8,2-.82.33-3.79,1-4,2-.21.7.42,1.48.72,1.89.62.81,1.19,1.13,2.15.77,1.86-.72,3.23-2.64,5.15-3a14.78,14.78,0,0,1,2.2-.92c1.44-.41,1.07,3.51.16,4a12.35,12.35,0,0,1-2.41.57c-2.19,0-.5,1,.51,1.27,1.29.38,3.69.16,4.5-1.18a3.72,3.72,0,0,0,.3-2.66c-.16-.74-1.1-2-.61-2.6.27-.33,1.46-.45,2-.45.79,0,3-2.28,1.71-2.61M134.07,61.79l2.25.1V77.13h-2.25V74.21l-.88.48-1,.5-1,.47c-.33.15-.62.28-.89.38l-.65-2.29,1-.38,1.14-.46,1.17-.52,1.09-.53v-4h-3.56V65.66h3.56Zm11,10.9c0,.29,0,.58-.07.88s0,.53-.08.81-.07.56-.11.8a2,2,0,0,1-.57,1.29,2,2,0,0,1-1.07.44c-.2,0-.45,0-.78,0l-1,0h-1c-.34,0-.62,0-.83-.06a1.73,1.73,0,0,1-1.7-1.93V61.79l2.25.14v4.49a17.17,17.17,0,0,0,1.82-1.09c.57-.39,1.1-.77,1.58-1.14l1.19,2a21.2,21.2,0,0,1-2,1.32,22.56,22.56,0,0,1-2.56,1.26V74a1.73,1.73,0,0,0,.07.54.37.37,0,0,0,.34.26c.34,0,.61.05.83.05a6.89,6.89,0,0,0,.74-.05.72.72,0,0,0,.47-.22,1,1,0,0,0,.21-.54c0-.25.06-.49.08-.74a5.76,5.76,0,0,1,.06-.66c0-.23,0-.46.05-.69Zm13.09.47c-.74.78-1.45,1.47-2.11,2.08s-1.34,1.17-2,1.7l-1.44-1.76c.41-.28.78-.55,1.12-.8s.66-.53,1-.79.61-.54.91-.84.62-.62,1-1Zm9.47-8H153.51v-2h6l-.33-1.38,2.3-.11.31,1.49h5.92Zm-5.8,6.46v2.87a7.2,7.2,0,0,1-.1,1.36,1.6,1.6,0,0,1-.35.8,1.41,1.41,0,0,1-.72.41,7.93,7.93,0,0,1-1.17.19l-1.29.12-.73-2.12,1.35-.16c.34,0,.55-.15.63-.31a2.14,2.14,0,0,0,.13-.92V71.64H155V66.09h11.09v5.55Zm-4.62-2h6.66V68.08h-6.66Zm6.81,2.1c.78.56,1.54,1.11,2.27,1.67s1.44,1.15,2.12,1.77L167.08,77a18.44,18.44,0,0,0-2-1.86c-.72-.59-1.49-1.18-2.29-1.77Zm21-4.25a9.93,9.93,0,0,0,1,2.83,10.39,10.39,0,0,0,3.43,3.75,19.54,19.54,0,0,0,2.12,1.21l-1.38,2A18.06,18.06,0,0,1,188.12,76,14.59,14.59,0,0,1,185,72.62a12.1,12.1,0,0,1-1-1.76,13.49,13.49,0,0,1-2.67,3.63,22,22,0,0,1-3.72,2.92l-1.53-1.94A21.16,21.16,0,0,0,178.4,74a13.39,13.39,0,0,0,2-1.79,9.63,9.63,0,0,0,1.48-2.14,7.43,7.43,0,0,0,.75-2.53H176.9V65.4h5.75V61.77l2.31.09V65.4h5.81v2.14Zm29.15,5.67h-5.85v1c0,.6,0,1.08-.05,1.46a1.84,1.84,0,0,1-.3.89,1.47,1.47,0,0,1-.76.51,6.56,6.56,0,0,1-1.4.28l-.42,0-.46,0-.52,0-.77-2.28,1.28-.09a5.65,5.65,0,0,0,.66-.08.61.61,0,0,0,.35-.21,1,1,0,0,0,.13-.44c0-.19,0-.46,0-.8v-.4h-6.37V71.08h6.37v-.67l2.15-1.07h-5.69v-2h8.93v2l-2.86,1.76h5.57ZM202.08,68H200V64.3h2.19c-.13-.34-.25-.67-.37-1s-.23-.6-.32-.81l2-.6c0,.08.09.21.16.4s.16.39.25.62.17.47.26.71.18.48.26.69h1.68q-.18-.63-.33-1.2c-.1-.39-.2-.72-.29-1l2-.52c.13.38.26.82.4,1.31s.27,1,.4,1.39h1.15c.24-.49.48-1,.72-1.49s.42-.93.56-1.28l2.16.8-1.09,2H214V68H212V66.35h-9.9Zm35.52-3.43h-2.54l.21.5c.06.16.13.3.19.43l-1.8.5c-.09-.2-.19-.42-.29-.68s-.21-.51-.3-.75h-.86a15.66,15.66,0,0,1-.9,1.48h4.91v4.44h-4.94v.8h5.92c0,.21,0,.46-.07.73s0,.54-.08.82-.07.55-.1.81-.06.51-.1.73a3.51,3.51,0,0,1-.18.81,1.15,1.15,0,0,1-.34.51,1.49,1.49,0,0,1-.62.29,7.8,7.8,0,0,1-1,.17l-1.29.13-.64-1.84,1.17-.11a1.29,1.29,0,0,0,.62-.14.61.61,0,0,0,.19-.41c0-.15.05-.29.07-.41s0-.24.05-.32h-3.62v4.06h-2.13V74.33a14.07,14.07,0,0,1-2.36,1.52,27.51,27.51,0,0,1-3.2,1.38l-1.19-1.84a28.08,28.08,0,0,0,3.18-1.1,12.92,12.92,0,0,0,2.29-1.24h-4.32l.68-4.35h4.92v-.86h-4.56V66.25l-.21.25a2.2,2.2,0,0,0-.2.23l-1.73-1.19q.44-.47.84-1c.28-.35.54-.71.78-1.07s.46-.73.66-1.09.36-.7.5-1l2.18.34c-.14.32-.3.66-.49,1h3.46V63.8c.22-.4.42-.79.6-1.19s.36-.8.52-1.2l2.06.36-.21.49c-.07.16-.15.32-.23.48h4.48ZM231,66l-1.59-.79c.09-.12.18-.23.26-.35l.24-.34h-1.57l.38.93-1.81.5-.27-.68c-.1-.26-.19-.51-.29-.75h-.48c-.17.26-.35.52-.53.76s-.37.49-.56.72Zm-1.83,4.44h-3.09l-.09.8h3.18Zm5-2.64h-2.91v.86h2.91Zm11.47,7.77c.57-.67,1.08-1.3,1.53-1.9a15.62,15.62,0,0,0,1.15-1.81,12.18,12.18,0,0,0,.83-1.89,15.36,15.36,0,0,0,.56-2.13q.22-1.16.36-2.52c.09-.92.15-2,.2-3.08l2.26.13c-.07,1.27-.15,2.4-.24,3.41s-.22,1.92-.37,2.75a16.89,16.89,0,0,1-.59,2.31,14.83,14.83,0,0,1-.88,2.06,17.44,17.44,0,0,1-1.24,2c-.47.68-1,1.4-1.65,2.17Zm10.72-13.46c0,1.16.08,2.2.16,3.13a22.61,22.61,0,0,0,.36,2.58,14.49,14.49,0,0,0,.62,2.19,14.08,14.08,0,0,0,.91,1.92,14.28,14.28,0,0,0,1.23,1.79c.46.59,1,1.19,1.6,1.82l-1.82,1.55c-.64-.74-1.22-1.44-1.72-2.12A18.76,18.76,0,0,1,256.39,73a15.37,15.37,0,0,1-1-2.15,17.3,17.3,0,0,1-.68-2.42,26.91,26.91,0,0,1-.41-2.86c-.1-1-.17-2.19-.2-3.47Zm13.34,1.18,2.06.08V75.35h-2.06Zm14.55,2.23h-4q.45.45.9,1a7.29,7.29,0,0,1,.7.94l-1,.91h2.7v8.29h-8.24V68.37h.22l-1-.77V77h-2.06V61.88l2.06.08v4.75A18.28,18.28,0,0,0,276,64.08a20,20,0,0,0,1.06-2.65l2.14.6-.24.68a6.93,6.93,0,0,1-.25.67h5.52ZM280,68.37l-.46-.58-.51-.58-.5-.55q-.24-.25-.45-.45l.72-.65h-1.05c-.25.5-.52,1-.79,1.46s-.55.92-.83,1.35Zm-1.54,1.92h-1.21v4.44h1.21Zm3.11,0h-1.25v4.44h1.25Zm21.11-.67a12.62,12.62,0,0,0,2,2.38,17.15,17.15,0,0,0,2.9,2.12L306.3,76A15.9,15.9,0,0,1,304,74a19.3,19.3,0,0,1-1.77-2.14v5.28h-2.14V71.9a21.06,21.06,0,0,1-1.86,2.26,17.73,17.73,0,0,1-2.28,2l-.92-1.4c-.15.46-.32.92-.52,1.38a15.53,15.53,0,0,1-.71,1.41l-2-1.2c.32-.55.6-1.07.82-1.55a8.35,8.35,0,0,0,.55-1.55,11.3,11.3,0,0,0,.32-1.84c.06-.68.09-1.49.09-2.45V63.14h5.84l-.26-1.42,2.35-.1.29,1.52h5.19V65.3H295.66v3.61c0,1,0,1.83-.09,2.62a16.76,16.76,0,0,1-.33,2.3,16,16,0,0,0,2.45-2,14.7,14.7,0,0,0,1.73-2.2H296V67.51h4.06V65.73l2.14.07v1.71h4.43v2.11Zm27.86,5.11v2h-14V62.29h13.65v2h-7.91l.86.36L323,65c-.05.13-.1.25-.16.38h6.36v1.85h-3.65c0,.23,0,.46,0,.71s0,.46,0,.65h4.64v2h-4.87a.58.58,0,0,1,0,.14l1.14.59,1.23.67,1.18.67c.37.21.68.4.94.56l-.85,1.52Zm-12,0h1.21L319,73.24c.6-.19,1.12-.39,1.58-.58a8.75,8.75,0,0,0,1.19-.62,3.92,3.92,0,0,0,.84-.67,3,3,0,0,0,.53-.79H319v-2h1.12l-1.16-.83a13.81,13.81,0,0,0,1.29-1.67,10.23,10.23,0,0,0,1-1.83h-2.62Zm3.25-7.46c-.15.24-.31.47-.48.7l-.51.66h2.63c0-.18,0-.4,0-.65s0-.48,0-.71Zm6.35,7.46c-.58-.37-1.22-.76-1.9-1.17s-1.3-.79-1.86-1.11a6,6,0,0,1-1.33,1.21,12.32,12.32,0,0,1-2,1.07Zm25.34-1.52h-5.85v1c0,.6,0,1.08-.05,1.46a1.74,1.74,0,0,1-.31.89,1.4,1.4,0,0,1-.75.51,6.56,6.56,0,0,1-1.4.28l-.42,0-.46,0-.52,0L343,75.23l1.27-.09a5.87,5.87,0,0,0,.67-.08.61.61,0,0,0,.35-.21,1,1,0,0,0,.13-.44c0-.19,0-.46,0-.8v-.4h-6.37V71.08h6.37v-.67l2.14-1.07h-5.68v-2h8.93v2L348,71.08h5.57ZM341.38,68h-2.12V64.3h2.19c-.13-.34-.25-.67-.37-1s-.23-.6-.32-.81l2-.6c0,.08.09.21.16.4s.16.39.25.62.17.47.26.71.18.48.26.69h1.68q-.18-.63-.33-1.2c-.1-.39-.2-.72-.29-1l2-.52c.13.38.26.82.4,1.31l.39,1.39h1.16c.24-.49.48-1,.72-1.49s.42-.93.56-1.28l2.16.8-1.09,2h2.26V68h-2.05V66.35h-9.9Zm26,4a5.58,5.58,0,0,1-.09,1.13,1.46,1.46,0,0,1-.29.64,1,1,0,0,1-.48.32,5,5,0,0,1-.67.18l-.82.15-.65-2,.6-.1a2.68,2.68,0,0,0,.33-.08.4.4,0,0,0,.19-.15.66.66,0,0,0,.1-.28c0-.12,0-.29,0-.49a3.07,3.07,0,0,0-.12-.88,5.24,5.24,0,0,0-.3-.78,5.52,5.52,0,0,0-.42-.75c-.17-.25-.32-.5-.47-.74.25-.62.47-1.26.66-1.91s.33-1.3.46-2h-1.17V77.18H362.4v-15h4.91v2c-.1.4-.2.76-.28,1.06s-.16.57-.24.83-.17.52-.26.77l-.31.87.42.75a4.26,4.26,0,0,1,.39.83,6,6,0,0,1,.28,1.09,9.42,9.42,0,0,1,.1,1.52m10.06,1.82c0,.16,0,.32,0,.48s0,.29,0,.46,0,.32-.06.47a5.11,5.11,0,0,1-.2.85,1.88,1.88,0,0,1-.28.53,1.08,1.08,0,0,1-.4.28,1.93,1.93,0,0,1-.5.11l-.59,0h-1.24l-.47,0a1.49,1.49,0,0,1-1.06-.51,1.75,1.75,0,0,1-.34-1.15V71.55h-1.09a11.81,11.81,0,0,1-.32,2.16,5.2,5.2,0,0,1-.67,1.57,5.46,5.46,0,0,1-1.09,1.22,12.22,12.22,0,0,1-1.55,1.08L366.27,76a9,9,0,0,0,1.42-.89,3.9,3.9,0,0,0,.87-1A3.76,3.76,0,0,0,369,73a9,9,0,0,0,.2-1.43h-1.49v-2h8.81v2h-2.33v3.06a.5.5,0,0,0,.06.29.41.41,0,0,0,.29.12l.36,0,.34,0a.52.52,0,0,0,.29-.12.64.64,0,0,0,.13-.39,2.58,2.58,0,0,0,0-.4l0-.4,0-.4ZM368.78,67h-1.26V63.12h3.35l-.26-1.35,2.21-.1.26,1.45h3.71V67h-1.43v1.46h-6.58Zm.6-.47h5.48V65.11h-5.48Z"/><path class="cls-2" d="M129.56,92.1v-7h2.27a8.08,8.08,0,0,1,1.68.11,1.79,1.79,0,0,1,1,.68,2.18,2.18,0,0,1,.41,1.36,2.28,2.28,0,0,1-.24,1.09,1.79,1.79,0,0,1-.59.68,2.1,2.1,0,0,1-.73.34,8.83,8.83,0,0,1-1.47.1H131V92.1ZM131,86.3v2h.78a3.7,3.7,0,0,0,1.11-.11.89.89,0,0,0,.44-.34.94.94,0,0,0,.16-.55.91.91,0,0,0-.22-.63,1.07,1.07,0,0,0-.57-.31,7.36,7.36,0,0,0-1,0Z"/><path class="cls-2" d="M139.49,90.49l1.33.23a2.17,2.17,0,0,1-.81,1.11,2.35,2.35,0,0,1-1.39.39,2.28,2.28,0,0,1-2-.87,2.91,2.91,0,0,1-.5-1.74,2.78,2.78,0,0,1,.66-2,2.16,2.16,0,0,1,1.67-.71,2.24,2.24,0,0,1,1.78.74,3.28,3.28,0,0,1,.62,2.29h-3.35a1.41,1.41,0,0,0,.32.93,1,1,0,0,0,.77.33.84.84,0,0,0,.53-.17,1.09,1.09,0,0,0,.33-.56m.07-1.35a1.3,1.3,0,0,0-.3-.89.92.92,0,0,0-.69-.3,1,1,0,0,0-.73.32,1.25,1.25,0,0,0-.28.87Z"/><polygon class="cls-2" points="142.43 92.1 142.43 85.11 143.77 85.11 143.77 88.82 145.34 87.04 146.99 87.04 145.25 88.89 147.11 92.1 145.66 92.1 144.39 89.83 143.77 90.48 143.77 92.1 142.43 92.1"/><path class="cls-2" d="M148.39,85.11h1.34v1.24h-1.34Zm0,1.93h1.34V92.1h-1.34Z"/><path class="cls-2" d="M156.2,92.1h-1.34V89.52a4.42,4.42,0,0,0-.08-1.06.78.78,0,0,0-.28-.38A.81.81,0,0,0,154,88a1,1,0,0,0-.62.19,1,1,0,0,0-.38.51,4.28,4.28,0,0,0-.1,1.16V92.1h-1.34V87h1.24v.74a2,2,0,0,1,1.67-.85,1.92,1.92,0,0,1,.81.16,1.35,1.35,0,0,1,.56.4,1.6,1.6,0,0,1,.26.56,4.35,4.35,0,0,1,.07.91Z"/><path class="cls-2" d="M157.93,92.44l1.53.18a.52.52,0,0,0,.17.37,1,1,0,0,0,.6.14A1.65,1.65,0,0,0,161,93a.67.67,0,0,0,.27-.34,2.13,2.13,0,0,0,.06-.62v-.74a1.81,1.81,0,0,1-1.52.82,1.83,1.83,0,0,1-1.61-.86,2.87,2.87,0,0,1-.47-1.7,2.77,2.77,0,0,1,.61-1.94,2,2,0,0,1,1.53-.67,1.83,1.83,0,0,1,1.54.82V87h1.26v4.54a4.43,4.43,0,0,1-.15,1.34,1.75,1.75,0,0,1-.41.7,1.91,1.91,0,0,1-.72.4,3.87,3.87,0,0,1-1.12.14,3,3,0,0,1-1.83-.44,1.4,1.4,0,0,1-.54-1.12,1,1,0,0,1,0-.16m1.19-3a1.89,1.89,0,0,0,.31,1.18,1,1,0,0,0,.77.37,1.07,1.07,0,0,0,.83-.38,1.67,1.67,0,0,0,.34-1.14,1.83,1.83,0,0,0-.32-1.17,1,1,0,0,0-.82-.38,1,1,0,0,0-.8.37,1.84,1.84,0,0,0-.31,1.15"/><path class="cls-2" d="M167.7,85.11h1.42V88.9a7.34,7.34,0,0,0,0,1.17,1.15,1.15,0,0,0,.43.69,1.53,1.53,0,0,0,.93.26,1.47,1.47,0,0,0,.91-.25,1,1,0,0,0,.36-.6,6.71,6.71,0,0,0,.07-1.19V85.11h1.41v3.67a9,9,0,0,1-.12,1.78,1.86,1.86,0,0,1-.42.88,2.08,2.08,0,0,1-.82.57,3.61,3.61,0,0,1-1.35.21,3.73,3.73,0,0,1-1.51-.23,2.06,2.06,0,0,1-.82-.6,2,2,0,0,1-.4-.77,8.7,8.7,0,0,1-.14-1.78Z"/><path class="cls-2" d="M179.85,92.1h-1.34V89.52a3.79,3.79,0,0,0-.09-1.06.76.76,0,0,0-.27-.38.81.81,0,0,0-.47-.13,1,1,0,0,0-.62.19,1,1,0,0,0-.38.51,4.28,4.28,0,0,0-.1,1.16V92.1h-1.35V87h1.25v.74a2,2,0,0,1,1.67-.85,2,2,0,0,1,.81.16,1.31,1.31,0,0,1,.55.4,1.46,1.46,0,0,1,.27.56,4.35,4.35,0,0,1,.07.91Z"/><path class="cls-2" d="M181.7,85.11H183v1.24H181.7Zm0,1.93H183V92.1H181.7Z"/><path class="cls-2" d="M186.29,92.1l-2-5.06h1.41l1,2.58.28.87.14-.44c0-.14.09-.28.14-.43l1-2.58h1.38l-2,5.06Z"/><path class="cls-2" d="M193.75,90.49l1.34.23a2.24,2.24,0,0,1-.82,1.11,2.35,2.35,0,0,1-1.39.39,2.25,2.25,0,0,1-1.95-.87,2.84,2.84,0,0,1-.5-1.74,2.78,2.78,0,0,1,.66-2,2.13,2.13,0,0,1,1.66-.71,2.23,2.23,0,0,1,1.78.74,3.28,3.28,0,0,1,.63,2.29H191.8a1.36,1.36,0,0,0,.33.93,1,1,0,0,0,.77.33.86.86,0,0,0,.53-.17,1.08,1.08,0,0,0,.32-.56m.08-1.35a1.3,1.3,0,0,0-.3-.89,1,1,0,0,0-1.42,0,1.2,1.2,0,0,0-.28.87Z"/><path class="cls-2" d="M198,92.1h-1.34V87h1.25v.72a2,2,0,0,1,.57-.67,1,1,0,0,1,.58-.16,1.66,1.66,0,0,1,.88.25l-.41,1.17a1.17,1.17,0,0,0-.63-.22.76.76,0,0,0-.48.15,1.08,1.08,0,0,0-.31.56,8.39,8.39,0,0,0-.11,1.7Z"/><path class="cls-2" d="M200.55,90.66l1.35-.21a1,1,0,0,0,.35.6,1.2,1.2,0,0,0,.73.2,1.28,1.28,0,0,0,.78-.19.43.43,0,0,0,.18-.36.33.33,0,0,0-.1-.25,1.11,1.11,0,0,0-.44-.18,7.29,7.29,0,0,1-2.06-.65,1.3,1.3,0,0,1-.6-1.14,1.4,1.4,0,0,1,.52-1.11,2.48,2.48,0,0,1,1.61-.44,2.91,2.91,0,0,1,1.55.33,1.73,1.73,0,0,1,.69,1l-1.26.23a.74.74,0,0,0-.31-.45,1.06,1.06,0,0,0-.64-.16,1.42,1.42,0,0,0-.76.15.32.32,0,0,0-.15.27.3.3,0,0,0,.13.24,4.85,4.85,0,0,0,1.25.38,3.89,3.89,0,0,1,1.5.59,1.27,1.27,0,0,1,.41,1,1.54,1.54,0,0,1-.58,1.2,2.58,2.58,0,0,1-1.72.5,2.85,2.85,0,0,1-1.64-.42,2,2,0,0,1-.79-1.14"/><path class="cls-2" d="M207,85.11h1.34v1.24H207ZM207,87h1.34V92.1H207Z"/><path class="cls-2" d="M212.47,87v1.07h-.92v2a4.45,4.45,0,0,0,0,.72.3.3,0,0,0,.12.17.35.35,0,0,0,.23.07,1.88,1.88,0,0,0,.53-.13l.12,1a2.74,2.74,0,0,1-1.06.2,1.67,1.67,0,0,1-.65-.12.92.92,0,0,1-.43-.32,1.32,1.32,0,0,1-.19-.52,6.43,6.43,0,0,1,0-.94V88.11h-.62V87h.62V86l1.34-.78V87Z"/><path class="cls-2" d="M213.25,87h1.43l1.21,3.6,1.18-3.6h1.39l-1.79,4.87-.32.89a3.47,3.47,0,0,1-.33.67,1.49,1.49,0,0,1-.37.38,1.71,1.71,0,0,1-.51.23,2.82,2.82,0,0,1-.68.08,3.84,3.84,0,0,1-.76-.08l-.12-1a3.07,3.07,0,0,0,.57.06.85.85,0,0,0,.69-.27,2,2,0,0,0,.34-.7Z"/><polygon class="cls-2" points="223.02 92.1 223.02 85.11 228.2 85.11 228.2 86.3 224.43 86.3 224.43 87.84 227.94 87.84 227.94 89.02 224.43 89.02 224.43 90.92 228.33 90.92 228.33 92.1 223.02 92.1"/><path class="cls-2" d="M230,85.11h1.34v1.24H230ZM230,87h1.34V92.1H230Z"/><path class="cls-2" d="M233.09,92.44l1.53.18a.49.49,0,0,0,.18.37,1,1,0,0,0,.6.14,1.58,1.58,0,0,0,.78-.15.67.67,0,0,0,.27-.34,2.13,2.13,0,0,0,.06-.62v-.74a1.79,1.79,0,0,1-1.51.82,1.86,1.86,0,0,1-1.62-.86,2.94,2.94,0,0,1-.47-1.7,2.82,2.82,0,0,1,.61-1.94,2,2,0,0,1,1.53-.67,1.86,1.86,0,0,1,1.55.82V87h1.25v4.54a4.43,4.43,0,0,1-.15,1.34,1.55,1.55,0,0,1-.41.7,1.94,1.94,0,0,1-.71.4,4,4,0,0,1-1.13.14,3,3,0,0,1-1.83-.44,1.4,1.4,0,0,1-.54-1.12s0-.1,0-.16m1.19-3a1.83,1.83,0,0,0,.32,1.18,1,1,0,0,0,.77.37,1.08,1.08,0,0,0,.83-.38,1.72,1.72,0,0,0,.34-1.14,1.78,1.78,0,0,0-.33-1.17,1,1,0,0,0-.82-.38,1,1,0,0,0-.79.37,1.77,1.77,0,0,0-.32,1.15"/><path class="cls-2" d="M241,85.11v2.57a2,2,0,0,1,1.55-.75,1.84,1.84,0,0,1,.83.17,1.36,1.36,0,0,1,.57.44,1.49,1.49,0,0,1,.25.59,4.88,4.88,0,0,1,.07,1v3h-1.34V89.43a4.1,4.1,0,0,0-.07-1,.71.71,0,0,0-.27-.34.83.83,0,0,0-.49-.13,1.07,1.07,0,0,0-.59.16.92.92,0,0,0-.39.49,3,3,0,0,0-.12,1V92.1h-1.34v-7Z"/><path class="cls-2" d="M248.44,87v1.07h-.91v2a5.15,5.15,0,0,0,0,.72.3.3,0,0,0,.12.17.35.35,0,0,0,.23.07,2,2,0,0,0,.54-.13l.11,1a2.71,2.71,0,0,1-1.06.2,1.67,1.67,0,0,1-.65-.12,1,1,0,0,1-.43-.32,1.32,1.32,0,0,1-.19-.52,8.37,8.37,0,0,1,0-.94V88.11h-.61V87h.61V86l1.35-.78V87Z"/><path class="cls-2" d="M251.19,85.11v2.57a2,2,0,0,1,1.55-.75,1.91,1.91,0,0,1,.84.17,1.33,1.33,0,0,1,.56.44,1.66,1.66,0,0,1,.26.59,5.74,5.74,0,0,1,.07,1v3h-1.34V89.43a3.92,3.92,0,0,0-.08-1,.61.61,0,0,0-.27-.34.82.82,0,0,0-.48-.13,1.1,1.1,0,0,0-.6.16,1,1,0,0,0-.38.49,2.93,2.93,0,0,0-.13,1V92.1h-1.34v-7Z"/><path class="cls-2" d="M264,89.53l1.36.44a3.06,3.06,0,0,1-1,1.7,3.31,3.31,0,0,1-4.15-.4,3.62,3.62,0,0,1-.89-2.6,3.82,3.82,0,0,1,.9-2.71,3.1,3.1,0,0,1,2.37-1,2.92,2.92,0,0,1,2.08.76,2.77,2.77,0,0,1,.72,1.29l-1.4.33a1.46,1.46,0,0,0-1.48-1.17,1.62,1.62,0,0,0-1.26.56,2.74,2.74,0,0,0-.48,1.81,2.89,2.89,0,0,0,.48,1.88,1.53,1.53,0,0,0,1.24.57,1.4,1.4,0,0,0,1-.36,2.09,2.09,0,0,0,.59-1.13"/><rect class="cls-2" x="267.05" y="85.11" width="1.34" height="6.99"/><path class="cls-2" d="M270.26,85.11h1.34v1.24h-1.34Zm0,1.93h1.34V92.1h-1.34Z"/><path class="cls-2" d="M278.06,92.1h-1.34V89.52a3.93,3.93,0,0,0-.08-1.06.78.78,0,0,0-.28-.38.79.79,0,0,0-.47-.13,1,1,0,0,0-.62.19,1,1,0,0,0-.38.51,4.28,4.28,0,0,0-.1,1.16V92.1h-1.34V87h1.24v.74a2,2,0,0,1,1.67-.85,1.92,1.92,0,0,1,.81.16,1.35,1.35,0,0,1,.56.4,1.6,1.6,0,0,1,.26.56,4.35,4.35,0,0,1,.07.91Z"/><path class="cls-2" d="M279.91,85.11h1.34v1.24h-1.34Zm0,1.93h1.34V92.1h-1.34Z"/><path class="cls-2" d="M287.53,88.54l-1.32.24a1,1,0,0,0-.3-.6,1,1,0,0,0-.62-.2,1,1,0,0,0-.8.34,1.8,1.8,0,0,0-.29,1.16,2,2,0,0,0,.3,1.27,1,1,0,0,0,.81.38,1,1,0,0,0,.63-.22,1.38,1.38,0,0,0,.34-.75l1.32.23a2.37,2.37,0,0,1-.79,1.37,2.49,2.49,0,0,1-1.56.46,2.34,2.34,0,0,1-1.77-.7,3.21,3.21,0,0,1,0-3.9,2.37,2.37,0,0,1,1.79-.69,2.47,2.47,0,0,1,1.47.39,2.2,2.2,0,0,1,.79,1.22"/><path class="cls-2" d="M290,88.59l-1.21-.22a1.86,1.86,0,0,1,.7-1.09,2.56,2.56,0,0,1,1.49-.35,3.28,3.28,0,0,1,1.34.21,1.31,1.31,0,0,1,.61.54,2.68,2.68,0,0,1,.18,1.19v1.57a5.78,5.78,0,0,0,.06,1,3.48,3.48,0,0,0,.24.68h-1.32a2.9,2.9,0,0,1-.13-.39,1.66,1.66,0,0,0-.05-.16,2.44,2.44,0,0,1-.73.5,2.14,2.14,0,0,1-.84.17,1.69,1.69,0,0,1-1.23-.43,1.4,1.4,0,0,1-.45-1.07,1.46,1.46,0,0,1,.2-.76,1.33,1.33,0,0,1,.58-.52,4.42,4.42,0,0,1,1.06-.31,7.94,7.94,0,0,0,1.31-.33v-.13a.74.74,0,0,0-.19-.56,1.16,1.16,0,0,0-.72-.16,1,1,0,0,0-.56.14,1,1,0,0,0-.33.5m1.8,1.08a8.37,8.37,0,0,1-.82.21,2.37,2.37,0,0,0-.73.23.56.56,0,0,0-.26.47.67.67,0,0,0,.21.49.72.72,0,0,0,.53.2,1.21,1.21,0,0,0,.69-.23.79.79,0,0,0,.32-.45,2.28,2.28,0,0,0,.06-.65Z"/><rect class="cls-2" x="294.95" y="85.11" width="1.34" height="6.99"/><polygon class="cls-2" points="301.35 92.1 301.35 85.11 303.46 85.11 304.73 89.88 305.98 85.11 308.1 85.11 308.1 92.1 306.79 92.1 306.79 86.6 305.4 92.1 304.04 92.1 302.66 86.6 302.66 92.1 301.35 92.1"/><path class="cls-2" d="M312.91,90.49l1.33.23a2.17,2.17,0,0,1-.81,1.11,2.35,2.35,0,0,1-1.39.39,2.25,2.25,0,0,1-2-.87,3.3,3.3,0,0,1,.15-3.71,2.16,2.16,0,0,1,1.67-.71,2.23,2.23,0,0,1,1.78.74,3.33,3.33,0,0,1,.63,2.29H311a1.41,1.41,0,0,0,.32.93,1,1,0,0,0,.78.33.86.86,0,0,0,.53-.17,1.08,1.08,0,0,0,.32-.56m.08-1.35a1.3,1.3,0,0,0-.3-.89,1,1,0,0,0-.7-.3,1,1,0,0,0-.73.32,1.25,1.25,0,0,0-.28.87Z"/><path class="cls-2" d="M320.54,92.1H319.3v-.74a2.08,2.08,0,0,1-.74.65,1.87,1.87,0,0,1-.85.21,1.92,1.92,0,0,1-1.49-.71,3.44,3.44,0,0,1,0-3.91,2,2,0,0,1,1.53-.67,1.88,1.88,0,0,1,1.47.7V85.11h1.34ZM317,89.46a2.37,2.37,0,0,0,.22,1.18,1,1,0,0,0,.9.52,1,1,0,0,0,.79-.39,1.82,1.82,0,0,0,.33-1.18,2,2,0,0,0-.32-1.26,1,1,0,0,0-1.6,0,1.68,1.68,0,0,0-.32,1.13"/><path class="cls-2" d="M322.35,85.11h1.34v1.24h-1.34Zm0,1.93h1.34V92.1h-1.34Z"/><path class="cls-2" d="M330,88.54l-1.32.24a1,1,0,0,0-.31-.6.91.91,0,0,0-.61-.2,1,1,0,0,0-.8.34,1.79,1.79,0,0,0-.3,1.16,2,2,0,0,0,.31,1.27,1,1,0,0,0,.81.38.92.92,0,0,0,.62-.22,1.32,1.32,0,0,0,.35-.75l1.31.23a2.3,2.3,0,0,1-.78,1.37,2.49,2.49,0,0,1-1.56.46,2.34,2.34,0,0,1-1.77-.7,3.21,3.21,0,0,1,0-3.9,2.37,2.37,0,0,1,1.79-.69,2.47,2.47,0,0,1,1.47.39,2.2,2.2,0,0,1,.79,1.22"/><path class="cls-2" d="M332.47,88.59l-1.21-.22a1.86,1.86,0,0,1,.7-1.09,2.56,2.56,0,0,1,1.49-.35,3.19,3.19,0,0,1,1.33.21,1.29,1.29,0,0,1,.62.54,2.68,2.68,0,0,1,.18,1.19v1.57a5.78,5.78,0,0,0,.06,1,2.53,2.53,0,0,0,.24.68h-1.32a2.9,2.9,0,0,1-.13-.39,1.66,1.66,0,0,0-.05-.16,2.36,2.36,0,0,1-.74.5,2.09,2.09,0,0,1-.83.17,1.69,1.69,0,0,1-1.23-.43,1.4,1.4,0,0,1-.45-1.07,1.46,1.46,0,0,1,.2-.76,1.33,1.33,0,0,1,.58-.52,4.42,4.42,0,0,1,1.06-.31,7.49,7.49,0,0,0,1.3-.33v-.13a.7.7,0,0,0-.19-.56,1.12,1.12,0,0,0-.72-.16,1,1,0,0,0-.55.14.92.92,0,0,0-.33.5m1.79,1.08a7.34,7.34,0,0,1-.81.21,2.37,2.37,0,0,0-.73.23.56.56,0,0,0-.26.47.67.67,0,0,0,.21.49.72.72,0,0,0,.53.2,1.21,1.21,0,0,0,.69-.23.79.79,0,0,0,.32-.45,2.4,2.4,0,0,0,.05-.65Z"/><rect class="cls-2" x="337.39" y="85.11" width="1.34" height="6.99"/><path class="cls-2" d="M343.45,89.83l1.37-.14a1.67,1.67,0,0,0,.5,1,1.5,1.5,0,0,0,1,.32,1.58,1.58,0,0,0,1-.28.88.88,0,0,0,.35-.68.64.64,0,0,0-.15-.42,1,1,0,0,0-.5-.3c-.17-.06-.55-.16-1.14-.31a4,4,0,0,1-1.59-.69,1.8,1.8,0,0,1-.64-1.41,1.77,1.77,0,0,1,.3-1,1.81,1.81,0,0,1,.87-.71,3.37,3.37,0,0,1,1.38-.25,3,3,0,0,1,2,.58,2.05,2.05,0,0,1,.7,1.54l-1.41.06a1.16,1.16,0,0,0-.39-.77,1.42,1.42,0,0,0-.9-.24,1.66,1.66,0,0,0-1,.25.52.52,0,0,0-.22.44.53.53,0,0,0,.21.42,3.66,3.66,0,0,0,1.29.47,7,7,0,0,1,1.53.5,2,2,0,0,1,.77.71,2.21,2.21,0,0,1-.05,2.24,2,2,0,0,1-.95.78,4,4,0,0,1-1.52.26,3.1,3.1,0,0,1-2-.61,2.68,2.68,0,0,1-.84-1.79"/><path class="cls-2" d="M355.21,88.54l-1.32.24A.85.85,0,0,0,353,88a1,1,0,0,0-.79.34,1.79,1.79,0,0,0-.3,1.16,2,2,0,0,0,.3,1.27,1,1,0,0,0,.81.38.93.93,0,0,0,.63-.22,1.38,1.38,0,0,0,.34-.75l1.32.23a2.37,2.37,0,0,1-.79,1.37,2.49,2.49,0,0,1-1.56.46,2.34,2.34,0,0,1-1.77-.7,3.21,3.21,0,0,1,0-3.9,2.37,2.37,0,0,1,1.8-.69,2.51,2.51,0,0,1,1.47.39,2.24,2.24,0,0,1,.78,1.22"/><path class="cls-2" d="M358.05,85.11v2.57a2,2,0,0,1,1.55-.75,1.84,1.84,0,0,1,.83.17,1.27,1.27,0,0,1,.56.44,1.37,1.37,0,0,1,.26.59,4.88,4.88,0,0,1,.07,1v3H360V89.43a4.1,4.1,0,0,0-.07-1,.71.71,0,0,0-.27-.34.83.83,0,0,0-.49-.13,1.07,1.07,0,0,0-.59.16.92.92,0,0,0-.39.49,3,3,0,0,0-.12,1V92.1h-1.34v-7Z"/><path class="cls-2" d="M362.86,89.5a2.69,2.69,0,0,1,.33-1.29,2.27,2.27,0,0,1,.93-1,2.75,2.75,0,0,1,1.35-.32,2.52,2.52,0,0,1,1.88.74,2.81,2.81,0,0,1,0,3.79,2.47,2.47,0,0,1-1.86.76,2.93,2.93,0,0,1-1.33-.32,2.14,2.14,0,0,1-1-.92,3.05,3.05,0,0,1-.33-1.48m1.37.07a1.7,1.7,0,0,0,.36,1.16,1.17,1.17,0,0,0,1.76,0,1.71,1.71,0,0,0,.36-1.17,1.66,1.66,0,0,0-.36-1.14,1.17,1.17,0,0,0-1.76,0,1.67,1.67,0,0,0-.36,1.15"/><path class="cls-2" d="M369.31,89.5a2.69,2.69,0,0,1,.33-1.29,2.27,2.27,0,0,1,.93-1,2.75,2.75,0,0,1,1.35-.32,2.5,2.5,0,0,1,1.88.74,2.8,2.8,0,0,1,0,3.79,2.5,2.5,0,0,1-1.87.76,2.93,2.93,0,0,1-1.33-.32,2.14,2.14,0,0,1-1-.92,3.05,3.05,0,0,1-.33-1.48m1.37.07a1.7,1.7,0,0,0,.36,1.16,1.16,1.16,0,0,0,.88.4,1.14,1.14,0,0,0,.88-.4,1.71,1.71,0,0,0,.36-1.17,1.66,1.66,0,0,0-.36-1.14,1.11,1.11,0,0,0-.88-.4,1.12,1.12,0,0,0-.88.4,1.67,1.67,0,0,0-.36,1.15"/><rect class="cls-2" x="376.08" y="85.11" width="1.34" height="6.99"/></svg>
